<?xml version="1.0" standalone="no"?>
<!DOCTYPE svg PUBLIC "-//W3C//DTD SVG 1.1//EN" "http://www.w3.org/Graphics/SVG/1.1/DTD/svg11.dtd">
<svg width="100%" height="100%" viewBox="0 0 60 50" version="1.1" xmlns="http://www.w3.org/2000/svg" xmlns:xlink="http://www.w3.org/1999/xlink" xml:space="preserve" style="fill-rule:evenodd;clip-rule:evenodd;stroke-linejoin:round;stroke-miterlimit:1.41421;">
    <g transform="matrix(1,0,0,1,-0.86467,-0.47495)">
        <path d="M58.804,6.694C58.804,3.95 56.575,1.721 53.831,1.721L7.257,1.721C4.512,1.721 2.284,3.95 2.284,6.694L2.284,44.238C2.284,46.983 4.512,49.211 7.257,49.211L53.831,49.211C56.575,49.211 58.804,46.983 58.804,44.238L58.804,6.694Z" style="fill:rgb(167,188,208);"/>
    </g>
    <g transform="matrix(1,0,0,0.896065,-0.83589,-0.157533)">
        <path d="M58.804,7.271C58.804,4.208 56.575,1.721 53.831,1.721L7.257,1.721C4.512,1.721 2.284,4.208 2.284,7.271L2.284,43.661C2.284,46.724 4.512,49.211 7.257,49.211L53.831,49.211C56.575,49.211 58.804,46.724 58.804,43.661L58.804,7.271Z" style="fill:rgb(183,199,215);"/>
    </g>
    <g transform="matrix(2.26887e-16,0.800937,-0.800937,2.26887e-16,57.9116,3.65862)">
        <path d="M25.029,18.393L37.549,43.432L12.51,43.432L25.029,18.393Z" style="fill:rgb(23,49,74);"/>
    </g>
    <g transform="matrix(2.10103e-16,0.741689,-0.800937,2.26887e-16,57.5456,4.71246)">
        <path d="M25.029,18.393L37.549,43.432L12.51,43.432L25.029,18.393Z" style="fill:rgb(48,72,96);"/>
    </g>
</svg>
