<?xml version="1.0" standalone="no"?>
<!DOCTYPE svg PUBLIC "-//W3C//DTD SVG 1.1//EN" "http://www.w3.org/Graphics/SVG/1.1/DTD/svg11.dtd">
<svg width="100%" height="100%" viewBox="0 0 200 200" version="1.1" xmlns="http://www.w3.org/2000/svg" xmlns:xlink="http://www.w3.org/1999/xlink" xml:space="preserve" style="fill-rule:evenodd;clip-rule:evenodd;stroke-linejoin:round;stroke-miterlimit:1.41421;">
    <g transform="matrix(1.0138,0,0,0.999771,-1.47055,1.80976)">
        <path d="M196.117,12.353C196.117,6.743 191.625,2.188 186.093,2.188L13.042,2.188C7.509,2.188 3.018,6.743 3.018,12.353L3.018,180.7C3.018,186.31 7.509,190.865 13.042,190.865L186.093,190.865C191.625,190.865 196.117,186.31 196.117,180.7L196.117,12.353Z" style="fill:rgb(192,192,192);"/>
    </g>
    <g transform="matrix(1.01274,0,0,0.95917,-1.56155,1.88312)">
        <path d="M196.117,7.401C196.117,4.524 193.905,2.188 191.18,2.188L7.955,2.188C5.23,2.188 3.018,4.524 3.018,7.401L3.018,185.652C3.018,188.529 5.23,190.865 7.955,190.865L191.18,190.865C193.905,190.865 196.117,188.529 196.117,185.652L196.117,7.401Z" style="fill:rgb(235,235,235);"/>
    </g>
    <g transform="matrix(0.484694,-0.795607,0.795607,0.484694,-17.0519,118.811)">
        <path d="M64.942,52.407C64.942,44.115 58.21,37.384 49.919,37.384C41.627,37.384 34.896,44.115 34.896,52.407L34.896,96.488C34.896,104.779 41.627,111.511 49.919,111.511C58.21,111.511 64.942,104.779 64.942,96.488L64.942,52.407Z" style="fill:rgb(99,187,68);"/>
    </g>
    <g transform="matrix(0.658756,0.658756,-1.17777,1.17777,176.439,-28.0327)">
        <path d="M64.942,45.787C64.942,41.149 58.21,37.384 49.919,37.384C41.627,37.384 34.896,41.149 34.896,45.787L34.896,103.108C34.896,107.746 41.627,111.511 49.919,111.511C58.21,111.511 64.942,107.746 64.942,103.108L64.942,45.787Z" style="fill:rgb(99,187,68);"/>
    </g>
</svg>
